<svg id="Capa_1" data-name="Capa 1" xmlns="http://www.w3.org/2000/svg" viewBox="0 0 172 45"><defs><style>.cls-1{fill:#fff;}</style></defs><title>atower-logo</title><path class="cls-1" d="M30.3,0H17.1L0,44.8H13.5L16.2,37h5.1l-.5-6.5a20.32,20.32,0,0,0-16,10.7A18.67,18.67,0,0,1,20.6,28.4l-.4-5-4.6,4.4L23,5.3l7,22.5-4.4-4.2-.4,4.8c8.7.6,15.6,6.1,17.5,13.1a19.9,19.9,0,0,0-17.5-11L24.6,37h6.7L34,44.8H47.7Z"/><path class="cls-1" d="M64.8,43.6a8.26,8.26,0,0,1-5.3,1.1c-5.5,0-9-2.7-9-8.4V29H47.3V23.3h3.2V17.6h7.6v5.7h5V29h-5v7.2A2.38,2.38,0,0,0,60,38.7h.4a3.24,3.24,0,0,0,2.3-.8Z"/><path class="cls-1" d="M65.7,33.5c0-6.5,5.1-11.2,12.4-11.2S90.5,27,90.5,33.5,85.3,45,78.1,45,65.7,40,65.7,33.5Zm17,0a4.58,4.58,0,0,0-9.1-1.1v1a4.43,4.43,0,0,0,4,5.1h.6C80.8,38.7,82.7,36.8,82.7,33.5Z"/><path class="cls-1" d="M129.7,22.5l-7.8,21.9h-7.4l-4.2-12-4.2,12H98.7L90.9,22.5h7.2l4.6,13.3,4.6-13.3h6.5l4.6,13.3L123,22.5Z"/><path class="cls-1" d="M153.5,35.4H137.7a4.86,4.86,0,0,0,5.3,3.4,7.53,7.53,0,0,0,5.1-1.9l4,4.2a12.19,12.19,0,0,1-9.3,3.6c-7.8,0-12.8-4.8-12.8-11.4s5.1-11.2,12-11.2c6.5,0,11.6,4.2,11.6,11.4A4,4,0,0,1,153.5,35.4Zm-16-4h9a4.4,4.4,0,0,0-5.3-3.6A4.46,4.46,0,0,0,137.5,31.4Z"/><path class="cls-1" d="M172,22.1V29c-.6,0-1.1-.2-1.7-.2A4.62,4.62,0,0,0,165,33V44.2h-7.6V22.5h7.2v2.7A8.74,8.74,0,0,1,172,22.1Z"/></svg>