<svg id="Capa_1" data-name="Capa 1" xmlns="http://www.w3.org/2000/svg" viewBox="0 0 59.4 14.1"><defs><style>.cls-1{fill:#3367d6;}</style></defs><title>atower-logo-blue</title><path class="cls-1" d="M9.5,0H5.4L0,13.9H4.2L5,11.5H6.6l-.2-2a6.52,6.52,0,0,0-5,3.3,6,6,0,0,1,4.9-4V7.3L4.9,8.7l2.3-7,2.2,7L8,7.3,7.9,8.8a6,6,0,0,1,5.4,4.1A6.57,6.57,0,0,0,7.9,9.4l-.2,2H9.8l.8,2.4h4.3Z"/><path class="cls-1" d="M20.4,13.6a3.83,3.83,0,0,1-1.9.5c-2,0-3.2-1-3.2-3V8.4H14.1V6.3h1.2V4.2H18V6.3h1.8V8.4H18V11c0,.6.3.9.8.9a1.61,1.61,0,0,0,.9-.3Z"/><path class="cls-1" d="M20.7,9.9c0-2.4,1.9-4.1,4.5-4.1s4.5,1.7,4.5,4.1S27.8,14,25.2,14A4.05,4.05,0,0,1,20.7,9.9Zm6.2,0A1.69,1.69,0,0,0,25.2,8a1.74,1.74,0,0,0-1.7,1.9,1.69,1.69,0,0,0,1.7,1.9C26.2,11.9,26.9,11.2,26.9,9.9Z"/><path class="cls-1" d="M44,6l-2.8,8H38.5L37,9.7,35.4,14H32.7L29.9,6h2.6l1.6,4.8L35.8,6h2.4l1.6,4.9L41.5,6Z"/><path class="cls-1" d="M52.7,10.7H46.9a1.84,1.84,0,0,0,2,1.3,2.27,2.27,0,0,0,1.8-.7l1.5,1.5a4.24,4.24,0,0,1-3.4,1.3c-2.8,0-4.7-1.7-4.7-4.1a4.13,4.13,0,0,1,4.4-4.1A4,4,0,0,1,52.8,10C52.8,10.2,52.7,10.4,52.7,10.7ZM46.9,9.2h3.3a1.62,1.62,0,0,0-1.6-1.4A1.58,1.58,0,0,0,46.9,9.2Z"/><path class="cls-1" d="M59.4,5.8V8.3h-.6a1.77,1.77,0,0,0-1.9,2V14H54V6h2.7V7A3.16,3.16,0,0,1,59.4,5.8Z"/></svg>